<svg xmlns="http://www.w3.org/2000/svg" viewBox="0 0 40.89 40.89"><defs><style>.cls-1{fill:#fff;}</style></defs><title>Asset 4</title><g id="Layer_2" data-name="Layer 2"><g id="Layer_1-2" data-name="Layer 1"><path id="_Compound_Path_" data-name="&lt;Compound Path&gt;" class="cls-1" d="M34.1,0H6.79A6.81,6.81,0,0,0,0,6.79V34.1a6.81,6.81,0,0,0,6.79,6.79H34.1a6.81,6.81,0,0,0,6.79-6.79V6.79A6.81,6.81,0,0,0,34.1,0Zm-21,17.89H27.8a7.79,7.79,0,1,1-14.71,0ZM35.78,33.22a2.56,2.56,0,0,1-2.56,2.56H7.67a2.56,2.56,0,0,1-2.56-2.56V17.89h4a11.52,11.52,0,0,0-.28,2.56,11.62,11.62,0,1,0,23-2.56h4Zm0-23H30.67V5.11h5.11Z"/></g></g></svg>