<svg xmlns="http://www.w3.org/2000/svg" viewBox="0 0 40.89 40.89"><defs><style>.cls-1{fill:#fff;}</style></defs><title>Asset 5</title><g id="Layer_2" data-name="Layer 2"><g id="Layer_1-2" data-name="Layer 1"><path id="_Compound_Path_" data-name="&lt;Compound Path&gt;" class="cls-1" d="M34,0H6.87A6.89,6.89,0,0,0,0,6.87V34a6.89,6.89,0,0,0,6.87,6.87H34A6.88,6.88,0,0,0,40.89,34V6.87A6.89,6.89,0,0,0,34,0ZM15.33,33.22H10.22V15.33h5.11Zm0-23H10.22V5.11h5.11Zm17.89,23H28.11V23A2.56,2.56,0,1,0,23,23V33.22H17.89V15.33H23v3.17c1.05-1.45,2.67-3.17,4.47-3.17,3.18,0,5.75,2.86,5.75,6.39Z"/></g></g></svg>