<svg xmlns="http://www.w3.org/2000/svg" viewBox="0 0 40.89 40.89"><defs><style>.cls-1{fill:#fff;}</style></defs><title>Asset 7</title><g id="Layer_2" data-name="Layer 2"><g id="Layer_1-2" data-name="Layer 1"><path id="_Compound_Path_" data-name="&lt;Compound Path&gt;" class="cls-1" d="M35.78,0H5.11A5.11,5.11,0,0,0,0,5.11V35.78a5.11,5.11,0,0,0,5.11,5.11H35.78a5.11,5.11,0,0,0,5.11-5.11V5.11A5.11,5.11,0,0,0,35.78,0ZM32.86,14.07c0,.27,0,.55,0,.83,0,8.46-6.44,18.23-18.22,18.23a18.1,18.1,0,0,1-9.81-2.88,13.92,13.92,0,0,0,1.55.09,13,13,0,0,0,8-2.74,6.29,6.29,0,0,1-5.89-4.45,8.75,8.75,0,0,0,1.4.12A9.72,9.72,0,0,0,12,23c-2.93-.59-4.35-3.18-4.35-6.28v-.08c0,.48,1.06.77,2.11.8-1.72-1.15-3.64-3.11-3.64-5.33A6.37,6.37,0,0,1,7,8.93a18.19,18.19,0,0,0,13.2,6.69,6.42,6.42,0,0,1,6.24-7.86,6.4,6.4,0,0,1,4.67,2,12.88,12.88,0,0,0,4.07-1.55,6.41,6.41,0,0,1-2.81,3.54,11.92,11.92,0,0,0,3.53-1h0A12.49,12.49,0,0,1,32.86,14.07Z"/></g></g></svg>